<svg version="1.0" xmlns="http://www.w3.org/2000/svg" xmlns:xlink="http://www.w3.org/1999/xlink" viewBox="0 0 178 135" color-interpolation-filters="sRGB">   <g fill="#333" class="icon-text-wrapper icon-svg-group iconsvg"><g class="iconsvg-imagesvg" transform="translate(58.785003662109375,0)"><g><rect fill="#333" fill-opacity="0" stroke-width="2" x="0" y="0" width="60.00000000000001" height="82.27631127871102" class="image-rect"></rect> <svg x="0" y="0" width="60.00000000000001" height="82.27631127871102" filtersec="colorsb6573957642" class="image-svg-svg primary" style="overflow: visible;"><svg xmlns="http://www.w3.org/2000/svg" viewBox="0 -0.039999961853027344 87.70012664794922 120.26000213623047"><path d="M42.52 90.75v26.88c0 2.49-.1 2.65-2.64 2.57a40.36 40.36 0 0 1-17.52-4.82A40.69 40.69 0 0 1 5.64 99.51 37.81 37.81 0 0 1 0 80c.06-10.75 0-21.54 0-32.32 0-2.36.16-2.5 2.58-2.5 6.69 0 13.39-.13 20.07 0a20.83 20.83 0 0 1 13.21 5.37c3.55 3 5.27 7 6.45 11.31a9.63 9.63 0 0 1 .19 2.47q.03 13.22.02 26.42zm-21.4-27a4.07 4.07 0 0 0 4.4-4.11 4.5 4.5 0 0 0-4.29-4.18A4.24 4.24 0 0 0 17 59.81a4 4 0 0 0 4.12 3.96z" fill="#5981e9"></path><path d="M56.56 87h29.21c1.35 0 1.94.45 1.93 1.83v29.54c0 1.37-.6 1.84-1.92 1.85a38.64 38.64 0 0 1-11-1.91A40.79 40.79 0 0 1 56.5 106.8a41.4 41.4 0 0 1-9-15 43.87 43.87 0 0 1-2.33-16.11c.13-3.64-.06-7.3 0-11C45.39 57.46 49 51.92 55 48.16a19.78 19.78 0 0 1 11-3c6.42.14 12.83 0 19.25 0 2.17 0 2.35.21 2.36 2.38 0 9.56-3.64 17.74-9.41 25.09A41.47 41.47 0 0 1 62 84.82c-1.76.77-3.62 1.3-5.44 1.94z" fill="#5a80eb"></path><path d="M0 21.22V2.29C0 .22.24 0 2.33 0h37.82c2.19 0 2.36.17 2.36 2.37 0 7 .06 14.06 0 21.08a18.3 18.3 0 0 1-2.69 9A20.3 20.3 0 0 1 27.1 42.1a21.22 21.22 0 0 1-6.41.61 130.48 130.48 0 0 0-15.06.1C.29 43.23 0 43 0 37.65V21.22zM45.18 13.08V1.96c0-1.42.56-2 2-2a41.48 41.48 0 0 1 11 1.94 38.84 38.84 0 0 1 16.76 10A37.75 37.75 0 0 1 84.51 26c1.73 4.65 3.15 9.29 3.15 14.28 0 2.07-.21 2.16-2.28 2.31-7.22.5-14.43 0-21.64-.12-6.25-.14-11.17-3.28-14.81-8.45a21.66 21.66 0 0 1-3.77-14.11c.11-2.3.02-4.57.02-6.83z" fill="#27d6d7"></path></svg></svg> <!----></g></g> <g transform="translate(0,89.27631378173828)"><g data-gra="path-name" fill-rule="" class="tp-name iconsvg-namesvg" transform="translate(0,0)"><g transform="scale(1)"><g><path d="M22.19-18.18L22.19-18.18Q22.19-16.64 21.76-15.24 21.34-13.85 20.59-12.67 19.84-11.5 18.77-10.55 17.69-9.6 16.4-8.99L16.4-8.99 22.19 0 16.4 0 11.26-7.98 7.94-7.98 9.92-12.83 12.02-12.83Q14.21-12.83 15.79-14.41L15.79-14.41Q16.52-15.18 16.92-16.15 17.33-17.13 17.33-18.18L17.33-18.18Q17.33-19.23 16.92-20.2 16.52-21.17 15.79-21.9L15.79-21.9Q14.21-23.48 12.02-23.48L12.02-23.48 6.28-23.48 6.28-20.81 6.28-12.83 6.28-7.98 6.28 0 1.42 0 1.42-7.98 1.42-20.81 1.42-28.34 12.02-28.34Q14.13-28.34 15.97-27.53 17.81-26.72 19.19-25.34 20.57-23.97 21.38-22.13 22.19-20.28 22.19-18.18ZM44.05-7.69L38.95-7.69 28.34-7.69Q28.74-6.76 29.51-6.03L29.51-6.03Q30.36-5.18 31.42-4.76 32.47-4.33 33.64-4.33L33.64-4.33Q35.3-4.33 36.6-5.1L36.6-5.1 41.66-3.08Q40.2-1.38 38.14-0.43 36.07 0.53 33.64 0.53L33.64 0.53Q31.42 0.53 29.47-0.3 27.53-1.13 26.07-2.59 24.62-4.05 23.79-5.99 22.96-7.94 22.96-10.12L22.96-10.12Q22.96-12.35 23.79-14.29 24.62-16.23 26.07-17.69 27.53-19.15 29.47-19.98 31.42-20.81 33.64-20.81L33.64-20.81Q35.87-20.81 37.81-19.98 39.76-19.15 41.21-17.69 42.67-16.23 43.5-14.29 44.33-12.35 44.33-10.12L44.33-10.12Q44.33-8.83 44.05-7.69L44.05-7.69ZM33.64-15.95L33.64-15.95Q31.3-15.95 29.51-14.25L29.51-14.25Q28.74-13.48 28.34-12.55L28.34-12.55 38.95-12.55Q38.54-13.48 37.77-14.25L37.77-14.25Q36.07-15.95 33.64-15.95ZM62.47-20.28L67.33-20.28 67.33 0 62.47 0 62.47-10.12Q62.47-12.55 60.77-14.25L60.77-14.25Q59.07-15.95 56.64-15.95L56.64-15.95Q55.47-15.95 54.39-15.51 53.32-15.06 52.51-14.25L52.51-14.25Q50.81-12.55 50.81-10.12L50.81-10.12Q50.81-7.73 52.51-6.03L52.51-6.03Q53.32-5.18 54.39-4.76 55.47-4.33 56.64-4.33L56.64-4.33Q57.85-4.33 58.83-4.74L58.83-4.74 60.57-0.4Q58.7 0.53 56.23 0.53L56.23 0.53Q54.01 0.53 52.13-0.3 50.24-1.13 48.87-2.59 47.49-4.05 46.72-5.99 45.95-7.94 45.95-10.12L45.95-10.12Q45.95-12.35 46.72-14.29 47.49-16.23 48.87-17.69 50.24-19.15 52.13-19.98 54.01-20.81 56.23-20.81L56.23-20.81Q58.22-20.81 59.76-20.2 61.3-19.6 62.47-18.66L62.47-18.66 62.47-20.28ZM75.02 0L75.02 0 70.16 0 70.16-28.34 75.02-28.34 75.02 0ZM87.33-4.86L88.54 0 84.09 0Q82.71 0 81.5-0.53 80.28-1.05 79.39-1.96 78.5-2.87 77.98-4.09 77.45-5.3 77.45-6.68L77.45-6.68 77.45-24.33 82.31-25.55 82.31-17.81 85.14-17.81 86.36-12.96 82.31-12.96 82.31-6.68Q82.31-5.91 82.83-5.38 83.36-4.86 84.09-4.86L84.09-4.86 87.33-4.86ZM99.03-15.95L99.03-15.95Q96.6-15.95 94.9-14.25L94.9-14.25Q93.2-12.55 93.2-10.12L93.2-10.12Q93.2-7.73 94.9-6.03L94.9-6.03Q95.71-5.18 96.78-4.76 97.85-4.33 99.03-4.33L99.03-4.33Q100.2-4.33 101.26-4.76 102.31-5.18 103.16-6.03L103.16-6.03Q104.86-7.73 104.86-10.12L104.86-10.12Q104.86-12.55 103.16-14.25L103.16-14.25Q101.38-15.95 99.03-15.95ZM99.03-20.81L99.03-20.81Q101.26-20.81 103.2-19.98 105.14-19.15 106.6-17.69 108.06-16.23 108.89-14.29 109.72-12.35 109.72-10.12L109.72-10.12Q109.72-7.94 108.89-5.99 108.06-4.05 106.6-2.59 105.14-1.13 103.2-0.3 101.26 0.53 99.03 0.53L99.03 0.53Q96.8 0.53 94.86-0.3 92.91-1.13 91.46-2.59 90-4.05 89.17-5.99 88.34-7.94 88.34-10.12L88.34-10.12Q88.34-12.35 89.17-14.29 90-16.23 91.46-17.69 92.91-19.15 94.86-19.98 96.8-20.81 99.03-20.81ZM116.8-18.7L116.8-18.7Q117.94-19.64 119.37-20.24 120.81-20.85 122.63-20.85L122.63-20.85 122.63-15.99Q120.2-15.99 118.5-14.29L118.5-14.29Q116.8-12.51 116.8-10.16L116.8-10.16 116.8 0 111.94 0 111.94-10.16 111.94-20.28 116.8-20.28 116.8-18.7ZM144.33-15.14L144.33-15.14Q145.95-14.01 146.92-12.23 147.89-10.45 147.89-8.34L147.89-8.34 147.89-8.26Q147.89-6.56 147.25-5.04 146.6-3.52 145.47-2.41 144.33-1.3 142.83-0.65 141.34 0 139.64 0L139.64 0 131.58 0 133.52-4.86 139.64-4.86Q141.05-4.86 142.04-5.85 143.04-6.84 143.04-8.26L143.04-8.26 143.04-8.34Q143.04-9.76 142.04-10.75 141.05-11.74 139.64-11.74L139.64-11.74 137.65-11.74 129.72-11.74 129.72-4.86 129.72 0 124.86 0 124.86-11.74 124.86-16.6 124.86-28.34 137.65-28.34Q139.35-28.34 140.87-27.69 142.39-27.04 143.5-25.91 144.62-24.78 145.26-23.28 145.91-21.78 145.91-20.08L145.91-20.08 145.91-20Q145.91-18.62 145.49-17.39 145.06-16.15 144.33-15.14ZM141.05-20L141.05-20.08Q141.05-21.5 140.06-22.49 139.07-23.48 137.65-23.48L137.65-23.48 129.72-23.48 129.72-16.6 137.65-16.6Q139.07-16.6 140.06-17.59 141.05-18.58 141.05-20L141.05-20ZM178.79-16.64L178.79-16.64Q178.87-16.03 178.93-15.43 178.99-14.82 178.99-14.21L178.99-14.21Q178.99-11.17 177.83-8.48 176.68-5.79 174.68-3.79 172.67-1.78 169.98-0.63 167.29 0.53 164.25 0.53L164.25 0.53Q161.21 0.53 158.52-0.63 155.83-1.78 153.83-3.79 151.82-5.79 150.67-8.48 149.51-11.17 149.51-14.21L149.51-14.21Q149.51-17.25 150.67-19.94 151.82-22.63 153.83-24.64 155.83-26.64 158.52-27.79 161.21-28.95 164.25-28.95L164.25-28.95Q167.33-28.95 170-27.79 172.67-26.64 174.66-24.62L174.66-24.62 171.26-21.17Q169.84-22.59 168.04-23.34 166.23-24.09 164.25-24.09L164.25-24.09Q162.27-24.09 160.49-23.34 158.7-22.59 157.29-21.17L157.29-21.17Q155.87-19.76 155.12-17.98 154.37-16.19 154.37-14.21L154.37-14.21Q154.37-12.23 155.12-10.43 155.87-8.62 157.29-7.21L157.29-7.21Q158.7-5.79 160.49-5.06 162.27-4.33 164.25-4.33L164.25-4.33Q166.23-4.33 168.04-5.06 169.84-5.79 171.26-7.21L171.26-7.21Q173.16-9.19 173.85-11.78L173.85-11.78 160.73-11.78 161.94-16.64 178.79-16.64Z" transform="translate(-1.4200000762939453, 28.950000762939453)"></path></g> <!----> <!----> <!----> <!----> <!----> <!----> <!----></g></g></g></g></svg>